<svg xmlns="http://www.w3.org/2000/svg" viewBox="0 0 480 360" width="480" height="360" role="img"><title>Кабель ВВГнг(А)-LS 5х4</title><defs><linearGradient id="plastic" x1="0" y1="0" x2="1" y2="1"><stop offset="0" stop-color="#ffffff"/><stop offset="1" stop-color="#dde3ea"/></linearGradient><linearGradient id="dark" x1="0" y1="0" x2="0" y2="1"><stop offset="0" stop-color="#5a616b"/><stop offset="1" stop-color="#2b3036"/></linearGradient><filter id="shadow" x="-20%" y="-20%" width="140%" height="140%"><feDropShadow dx="0" dy="6" stdDeviation="8" flood-color="#1d2733" flood-opacity="0.18"/></filter></defs><rect width="480" height="360" fill="#f4f7fb"/><g filter="url(#shadow)"><circle cx="190" cy="190" r="108" fill="#2b3036"/><circle cx="190" cy="190" r="96" fill="#d9dde2"/><circle cx="190.0" cy="132.0" r="26" fill="#8b5a2b"/><circle cx="190.0" cy="132.0" r="14.3" fill="#c77b3b" stroke="#a45f25"/><circle cx="245.2" cy="172.1" r="26" fill="#222222"/><circle cx="245.2" cy="172.1" r="14.3" fill="#c77b3b" stroke="#a45f25"/><circle cx="224.1" cy="236.9" r="26" fill="#8a8a8a"/><circle cx="224.1" cy="236.9" r="14.3" fill="#c77b3b" stroke="#a45f25"/><circle cx="155.9" cy="236.9" r="26" fill="#2f6fd1"/><circle cx="155.9" cy="236.9" r="14.3" fill="#c77b3b" stroke="#a45f25"/><circle cx="134.8" cy="172.1" r="26" fill="#d4c21a"/><circle cx="134.8" cy="172.1" r="14.3" fill="#c77b3b" stroke="#a45f25"/></g><text x="385" y="170" font-family="Arial, Helvetica, sans-serif" font-size="22" font-weight="700" fill="#1d2733" text-anchor="middle">5 × 4 мм²</text><text x="385" y="198" font-family="Arial, Helvetica, sans-serif" font-size="13" font-weight="400" fill="#4d5965" text-anchor="middle">медь, 0,66 кВ</text><text x="385" y="220" font-family="Arial, Helvetica, sans-serif" font-size="13" font-weight="700" fill="#4d5965" text-anchor="middle">ВВГнг(А)-LS</text><text x="240.0" y="40" font-family="Arial, Helvetica, sans-serif" font-size="15" font-weight="700" fill="#1d2733" text-anchor="middle">Кабель ВВГнг(А)-LS 5×4 · Кабельный завод</text><text x="468" y="348" font-family="Arial, Helvetica, sans-serif" font-size="11" font-weight="400" fill="#9aa5b1" text-anchor="end">демо-иллюстрация</text></svg>